<svg width="121" height="40" viewBox="0 0 121 40" fill="none" xmlns="http://www.w3.org/2000/svg">
<path d="M111.055 0.00013H9.61436C9.24459 0.00013 8.87927 0.00013 8.51048 0.00213C8.20177 0.00413 7.89552 0.00994 7.58385 0.01483C6.90675 0.0227318 6.23125 0.0818063 5.5632 0.19154C4.8961 0.303663 4.24989 0.515046 3.64644 0.81854C3.04372 1.1246 2.49301 1.5223 2.01426 1.9972C1.53301 2.47077 1.13184 3.01815 0.826197 3.61829C0.519707 4.21724 0.307186 4.85907 0.195974 5.52161C0.0837046 6.18332 0.0232914 6.85265 0.0152766 7.52361C0.00591905 7.83021 0.00493086 8.13783 0 8.44447V31.5587C0.00493086 31.8692 0.00591905 32.17 0.0152766 32.4806C0.0232939 33.1516 0.0837071 33.8209 0.195974 34.4825C0.306879 35.1455 0.519413 35.7877 0.826197 36.3868C1.1317 36.985 1.53292 37.5302 2.01426 38.0011C2.49119 38.4781 3.04226 38.8761 3.64644 39.1798C4.24989 39.4841 4.89603 39.6968 5.5632 39.8106C6.23136 39.9195 6.9068 39.9786 7.58385 39.9874C7.89552 39.9942 8.20177 39.9981 8.51048 39.9981C8.87926 40.0001 9.24461 40.0001 9.61436 40.0001H111.055C111.418 40.0001 111.786 40.0001 112.148 39.9981C112.455 39.9981 112.771 39.9942 113.078 39.9874C113.754 39.9791 114.428 39.92 115.095 39.8106C115.764 39.696 116.412 39.4834 117.019 39.1798C117.622 38.8759 118.173 38.478 118.649 38.0011C119.129 37.5284 119.532 36.9836 119.841 36.3868C120.145 35.7872 120.356 35.1451 120.465 34.4825C120.578 33.8208 120.64 33.1516 120.652 32.4806C120.656 32.17 120.656 31.8692 120.656 31.5587C120.664 31.1954 120.664 30.8341 120.664 30.4649V9.53626C120.664 9.17005 120.664 8.80677 120.656 8.44447C120.656 8.13783 120.656 7.83021 120.652 7.52357C120.64 6.85255 120.578 6.18337 120.465 5.52157C120.356 4.85941 120.145 4.21763 119.841 3.61825C119.218 2.41533 118.231 1.43616 117.019 0.81845C116.412 0.515697 115.764 0.30437 115.095 0.19145C114.428 0.0812328 113.754 0.0221378 113.078 0.01469C112.771 0.00981 112.455 0.00395 112.148 0.002C111.786 0 111.418 0 111.055 0V0.00013Z" fill="#A6A6A6"/>
<path d="M8.51547 39.1251C8.20824 39.1251 7.90844 39.1212 7.60362 39.1144C6.97217 39.1063 6.34219 39.0517 5.71886 38.9513C5.13763 38.852 4.57458 38.6674 4.04827 38.4034C3.52679 38.1416 3.05116 37.7984 2.6396 37.3868C2.22208 36.9801 1.87448 36.5084 1.61056 35.9903C1.34374 35.4689 1.15908 34.91 1.06302 34.3331C0.959289 33.7132 0.903164 33.0864 0.895133 32.4581C0.88874 32.2472 0.880371 31.545 0.880371 31.545V8.44446C0.880371 8.44446 0.889285 7.75305 0.895184 7.54992C0.902873 6.9226 0.958672 6.29678 1.0621 5.67785C1.15833 5.09937 1.34313 4.53887 1.6101 4.01575C1.87304 3.49807 2.21872 3.02598 2.63372 2.6178C3.04826 2.20574 3.52541 1.86073 4.04778 1.59533C4.57288 1.33222 5.13487 1.14885 5.71492 1.05139C6.3403 0.949958 6.97246 0.895118 7.6061 0.887332L8.51596 0.875122H112.143L113.064 0.887822C113.692 0.895221 114.318 0.949572 114.938 1.05041C115.524 1.1491 116.092 1.33374 116.623 1.59826C117.669 2.13311 118.521 2.97929 119.058 4.01819C119.321 4.5377 119.503 5.09363 119.598 5.66711C119.702 6.29111 119.761 6.92186 119.773 7.55432C119.776 7.83752 119.776 8.14172 119.776 8.44446C119.784 8.81946 119.784 9.17639 119.784 9.53625V30.4649C119.784 30.8282 119.784 31.1827 119.776 31.5401C119.776 31.8653 119.776 32.1632 119.772 32.4698C119.76 33.091 119.703 33.7105 119.6 34.3233C119.506 34.9044 119.322 35.4676 119.055 35.9933C118.789 36.5057 118.444 36.9734 118.031 37.379C117.619 37.7928 117.143 38.1381 116.62 38.4015C116.09 38.6675 115.523 38.8529 114.938 38.9513C114.315 39.0523 113.685 39.1068 113.053 39.1144C112.758 39.1212 112.449 39.1251 112.148 39.1251L111.055 39.1271L8.51547 39.1251Z" fill="black"/>
</svg>
